<svg width="61" height="10" viewBox="0 0 61 10" fill="none" xmlns="http://www.w3.org/2000/svg">
<path d="M17.0515 7.71141C18.2895 7.71141 19.2879 7.00735 19.6351 5.88136H17.9435C17.7803 6.17002 17.4487 6.34408 17.0515 6.34408C16.5146 6.34408 16.1551 6.05151 16.0444 5.48548H19.708C19.7302 5.33269 19.7432 5.18423 19.7432 5.03535C19.7432 3.58771 18.6419 2.45261 17.0515 2.45261C15.5027 2.45261 14.3711 3.56557 14.3711 5.07832C14.3711 6.58586 15.5118 7.71141 17.0515 7.71141ZM18.069 4.54398H16.074C16.2116 4.05391 16.5558 3.78478 17.0515 3.78478C17.5641 3.78478 17.9196 4.05087 18.069 4.54441V4.54398ZM22.8203 7.71098C23.3933 7.71098 23.9055 7.52259 24.3092 7.1953L24.4551 7.54429H25.769V2.60931H24.5019L24.3283 2.99129C23.9203 2.65488 23.4016 2.46085 22.8203 2.46085C21.3115 2.46085 20.2328 3.54821 20.2328 5.07658C20.2328 6.61017 21.3115 7.71141 22.8203 7.71141V7.71098ZM23.0478 6.20604C22.411 6.20604 21.9431 5.72509 21.9431 5.08049C21.9431 4.44023 22.4071 3.95928 23.0478 3.95928C23.6842 3.95928 24.1521 4.44023 24.1521 5.08049C24.1521 5.72509 23.6842 6.20604 23.0478 6.20604ZM28.7442 7.71098C30.0551 7.71098 30.9254 7.03643 30.9254 6.00507C30.9254 4.75363 29.8892 4.59172 29.1096 4.45325C28.6408 4.36948 28.2632 4.30393 28.2632 4.02352C28.2632 3.79476 28.4464 3.65977 28.719 3.65977C29.0272 3.65977 29.2386 3.80605 29.2386 4.12119H30.8303C30.8112 3.12151 29.9969 2.45304 28.7398 2.45304C27.4758 2.45304 26.6328 3.09113 26.6328 4.08082C26.6328 5.27756 27.6472 5.50849 28.4125 5.6322C28.8865 5.71077 29.2598 5.79194 29.2598 6.07669C29.2598 6.33149 29.0241 6.45868 28.7754 6.45868C28.4533 6.45868 28.2024 6.29243 28.2024 5.93171H26.566C26.5816 7.00083 27.399 7.71141 28.7442 7.71141V7.71098ZM32.2602 9.38564C33.5346 9.38564 34.1458 8.84001 34.8112 7.32986L36.8791 2.61452H35.0534L34.0772 5.33312L33.0302 2.61452H31.1832L33.2225 7.14191C32.9924 7.75569 32.7958 7.92498 32.146 7.92498H31.6781V9.38564H32.2602ZM40.2923 7.71098C41.8115 7.71098 42.885 6.61928 42.885 5.0857C42.885 3.55212 41.812 2.46042 40.2923 2.46042C39.8597 2.45705 39.4349 2.57494 39.066 2.80073V0.832642H37.3861V7.5495H38.6436L38.8043 7.18315C39.2049 7.51782 39.7167 7.71098 40.2923 7.71098ZM40.0652 6.20604C39.4285 6.20604 38.9605 5.72509 38.9605 5.08613C38.9605 4.4411 39.4285 3.96015 40.0652 3.96015C40.7016 3.96015 41.1695 4.4411 41.1695 5.0857C41.1695 5.72509 40.6977 6.20561 40.0652 6.20561V6.20604ZM45.9678 7.71098C46.5408 7.71098 47.053 7.52259 47.4567 7.1953L47.6025 7.54429H48.9164V2.60931H47.6498L47.4758 2.99129C47.0682 2.65488 46.549 2.46085 45.9678 2.46085C44.4589 2.46085 43.3807 3.54821 43.3807 5.07658C43.3807 6.61017 44.4589 7.71141 45.9678 7.71141V7.71098ZM46.1952 6.20604C45.5584 6.20604 45.0905 5.72509 45.0905 5.08049C45.0905 4.44023 45.555 3.95928 46.1952 3.95928C46.832 3.95928 47.3 4.44023 47.3 5.08049C47.3 5.72509 46.832 6.20604 46.1952 6.20604ZM51.6876 7.5495V4.91424C51.6876 4.28613 51.9923 3.91587 52.5223 3.91587C52.9503 3.91587 53.166 4.20106 53.166 4.77534V7.54907H54.8654V4.54094C54.8654 3.28342 54.1132 2.4691 52.9672 2.4691C52.3291 2.4691 51.7809 2.71435 51.4132 3.12368L51.1801 2.61495H49.9877V7.54994H51.6876V7.5495ZM57.6552 7.5495V5.46248L58.8915 7.5495H60.8952L59.2014 4.96676L60.7393 2.61452H58.8307L57.6552 4.54788V0.832642H55.9554V7.5495H57.6552Z" fill="white"/>
<path fill-rule="evenodd" clip-rule="evenodd" d="M5.35244 0.832642L0.663574 9.38564H3.26194L7.95124 0.832642H5.35244Z" fill="url(#paint0_linear_3_57)"/>
<path opacity="0.5" fill-rule="evenodd" clip-rule="evenodd" d="M8.55112 0.832642L3.86182 9.38564H6.46018L11.1495 0.832642H8.55112Z" fill="url(#paint1_linear_3_57)"/>
<path opacity="0.15" fill-rule="evenodd" clip-rule="evenodd" d="M11.7494 0.832642L7.06055 9.38564H9.65891L14.3478 0.832642H11.7494Z" fill="url(#paint2_linear_3_57)"/>
<defs>
<linearGradient id="paint0_linear_3_57" x1="5.92491" y1="0.832641" x2="0.87383" y2="8.70184" gradientUnits="userSpaceOnUse">
<stop stop-color="#33D35E"/>
<stop offset="1" stop-color="#2AB6D9"/>
</linearGradient>
<linearGradient id="paint1_linear_3_57" x1="9.12315" y1="0.832641" x2="4.07207" y2="8.70184" gradientUnits="userSpaceOnUse">
<stop stop-color="#33D35E"/>
<stop offset="1" stop-color="#2AB6D9"/>
</linearGradient>
<linearGradient id="paint2_linear_3_57" x1="12.3216" y1="0.832641" x2="7.27036" y2="8.70157" gradientUnits="userSpaceOnUse">
<stop stop-color="#33D35E"/>
<stop offset="1" stop-color="#2AB6D9"/>
</linearGradient>
</defs>
</svg>
